<?xml version="1.0" standalone="no"?><!DOCTYPE svg PUBLIC "-//W3C//DTD SVG 1.1//EN" "http://www.w3.org/Graphics/SVG/1.1/DTD/svg11.dtd"><svg t="1519753966612" class="icon" style="" viewBox="0 0 1024 1024" version="1.1" xmlns="http://www.w3.org/2000/svg" p-id="7032" xmlns:xlink="http://www.w3.org/1999/xlink" width="200" height="200"><defs><style type="text/css"></style></defs><path d="M870.4 261.5h-174V257c0-48.2-39.2-87.5-87.4-87.5H412c-48.2 0-87.4 39.2-87.4 87.5v4.5h-174c-48.2 0-87.4 39.2-87.4 87.5v416.6c0 48.2 39.2 87.5 87.4 87.5h719.8c48.2 0 87.5-39.2 87.5-87.5V348.9c-0.1-48.2-39.3-87.4-87.5-87.4zM380.6 257c0-17.3 14.1-31.4 31.4-31.4h196.9c17.3 0 31.4 14.1 31.4 31.4v4.5H380.6V257z m-230 60.6h719.8c17.3 0 31.4 14.1 31.4 31.4v59c-0.7 2-1.1 4-1.1 6.2 0 15-4.8 34-42.5 47.5l-215.7 54.6c-3.1-28.6-29.3-51.1-61.1-51.1H439.7c-32 0-58.3 22.6-61.1 51.4l-217.3-55c-32.2-11.6-40.4-27.1-42.1-40.7V349c0-17.4 14.1-31.4 31.4-31.4z m454.7 204.3v36.6c0 10.5-11 19.3-24.1 19.3H439.7c-13.1 0-24.1-8.8-24.1-19.3v-36.6c0-10.5 11-19.3 24.1-19.3h141.6c13-0.1 24 8.8 24 19.3zM870.4 797H150.6c-17.3 0-31.4-14.1-31.4-31.4v-7c11.4 6.6 24.6 10.5 38.6 10.5H683c10.3 0 18.7-8.4 18.7-18.7 0-10.3-8.3-18.7-18.7-18.7H157.8c-19 0-34.8-13.3-38.6-30.9V482.4c8.7 5.7 18.8 10.6 30.5 14.7 0.5 0.2 1.1 0.3 1.6 0.5l227 57.5v3.4c0 31.3 27.5 56.7 61.4 56.7h141.6c33.9 0 61.4-25.4 61.4-56.7v-3.7l225.5-57.1c0.5-0.1 1.1-0.3 1.6-0.5 12.4-4.3 23-9.6 32-15.8v219.4c-3.8 17.6-19.7 30.9-38.6 30.9h-90.4c-10.3 0-18.7 8.4-18.7 18.7 0 10.3 8.4 18.7 18.7 18.7h90.4c14.1 0 27.3-3.9 38.6-10.5v7c0 17.3-14.1 31.4-31.4 31.4z" fill="#d81e06" p-id="7033"></path></svg>