<?xml version="1.0" standalone="no"?><!DOCTYPE svg PUBLIC "-//W3C//DTD SVG 1.1//EN" "http://www.w3.org/Graphics/SVG/1.1/DTD/svg11.dtd"><svg t="1519754015694" class="icon" style="" viewBox="0 0 1024 1024" version="1.1" xmlns="http://www.w3.org/2000/svg" p-id="7742" xmlns:xlink="http://www.w3.org/1999/xlink" width="200" height="200"><defs><style type="text/css"></style></defs><path d="M931.1 264h-69.6v-19.7l-23.7-9.3c-4.7-1.9-117.3-45.6-215.8-45.6-46.1 0-83 9.5-110.2 28.3-27.2-18.8-64.1-28.3-110.2-28.3-98.5 0-211.1 43.7-215.8 45.6l-23.6 9.3V264H94c-15.4 0-28 12.5-28 28v515c0 15.4 12.5 28 28 28h837.1c15.4 0 28-12.5 28-28V292c-0.1-15.5-12.6-28-28-28z m-106.9 5.7v408.7c-57.7-19.8-211.1-64.6-293.8-16.3V250.5c23.3-17.4 56.2-23.8 91.6-23.8 92.5-0.1 202.2 43 202.2 43z m-42.3 434.1H536.2c47.9-45.4 166.7-23.6 245.7 0zM401.5 226.6c35.4 0 68.3 6.4 91.6 23.8V662c-82.8-48.3-236.1-3.5-293.8 16.3V269.7s109.6-43.1 202.2-43.1z m85.7 477.2H241.4c79.1-23.6 197.9-45.5 245.8 0zM903.1 779H122V319.9h40v421.2H861.6V319.9h41.7V779z" fill="#d81e06" p-id="7743"></path></svg>