<?xml version="1.0" standalone="no"?><!DOCTYPE svg PUBLIC "-//W3C//DTD SVG 1.1//EN" "http://www.w3.org/Graphics/SVG/1.1/DTD/svg11.dtd"><svg t="1519754004834" class="icon" style="" viewBox="0 0 1024 1024" version="1.1" xmlns="http://www.w3.org/2000/svg" p-id="7565" xmlns:xlink="http://www.w3.org/1999/xlink" width="200" height="200"><defs><style type="text/css"></style></defs><path d="M713.6 333.1H311.1c-7.7 0-15.1 3.2-20.4 8.9-5.3 5.7-8 13.3-7.6 21l34.6 570.1c0.9 14.9 13.2 26.4 28 26.4h333.2c14.8 0 27.1-11.6 28-26.4L741.5 363c0.5-7.7-2.3-15.3-7.6-21-5.2-5.6-12.6-8.9-20.3-8.9zM372.2 903.2l-2-33.5h146.2c10.3 0 18.7-8.4 18.7-18.8s-8.4-18.8-18.7-18.8H367.8l-26.9-442.7h342.8l-26.9 442.7h-47.5c-10.3 0-18.7 8.4-18.7 18.8s8.4 18.8 18.7 18.8h45.3l-2 33.5H372.2zM722.1 236.3h-41.9c0.8-2.6 1.3-5.3 1.3-8.2 0-15.5-12.6-28.2-28-28.2H533.1l-20.6-84.4c-1.7-7-7.2-12.4-14.3-13.9L315 62.5c-10.1-2.2-20 4.3-22.2 14.4-2.2 10.1 4.3 20.1 14.4 22.3L479 136l15.6 64H370.7c-15.5 0-28 12.6-28 28.2 0 2.9 0.6 5.6 1.3 8.2h-42c-15.5 0-28 12.6-28 28.2 0 15.5 12.6 28.1 28 28.1h420.1c15.5 0 28-12.6 28-28.1 0-15.7-12.5-28.3-28-28.3z" fill="#d81e06" p-id="7566"></path></svg>