<?xml version="1.0" standalone="no"?><!DOCTYPE svg PUBLIC "-//W3C//DTD SVG 1.1//EN" "http://www.w3.org/Graphics/SVG/1.1/DTD/svg11.dtd"><svg t="1519753996323" class="icon" style="" viewBox="0 0 1024 1024" version="1.1" xmlns="http://www.w3.org/2000/svg" p-id="7387" xmlns:xlink="http://www.w3.org/1999/xlink" width="200" height="200"><defs><style type="text/css"></style></defs><path d="M784.8 64.1H242.6c-30.7 0-55.7 24.9-55.7 55.7v180.5c0 18.6 9.3 36 24.8 46.3l177.1 117.9C306.6 509 250.6 596.1 250.6 696c0 145.1 118 263.1 263.1 263.1 145 0 263-118 263-263.1 0-99.9-56-186.9-138.2-231.5l177.1-117.9c15.5-10.3 24.8-27.7 24.8-46.3V119.8c0-30.8-24.9-55.7-55.6-55.7z m-63.8 632c0 114.6-92.8 207.4-207.4 207.4-114.6 0-207.4-92.8-207.4-207.4 0-114.5 92.8-207.4 207.4-207.4 114.6 0 207.4 92.9 207.4 207.4z m63.8-395.8L678.7 371V265c0-10.2-8.3-18.5-18.6-18.5-10.2 0-18.6 8.3-18.6 18.5v130.7l-66.9 44.6c-19.6-4.7-40-7.2-61-7.2s-41.4 2.6-61 7.2L384.5 395V265c0-10.2-8.3-18.5-18.6-18.5s-18.6 8.3-18.6 18.5v105.2l-104.9-69.9V119.8h104.9v49.7c0 10.2 8.3 18.6 18.6 18.6 10.2 0 18.6-8.3 18.6-18.6v-49.7h257v49.7c0 10.2 8.3 18.6 18.6 18.6s18.6-8.3 18.6-18.6v-49.7h106.1v180.5z" fill="#d81e06" p-id="7388"></path><path d="M480.4 550.4L449.5 613l-69.1 10c-14 2-25.6 11.8-30 25.3-4.4 13.4-0.7 28.2 9.4 38.1l50 48.7-11.8 68.8c-2.4 13.9 3.3 28 14.8 36.3 6.5 4.7 14.1 7.1 21.8 7.1 5.9 0 11.8-1.4 17.3-4.3l61.8-32.5 61.8 32.5c5.4 2.8 11.4 4.3 17.3 4.3 7.7 0 15.3-2.4 21.8-7.1 11.4-8.3 17.2-22.4 14.8-36.3L617.5 735l50-48.8c10.1-9.9 13.8-24.6 9.4-38-4.4-13.4-16-23.2-30-25.3l-69.1-10-30.8-62.5c-6.3-12.7-19.2-20.7-33.3-20.7-14.1 0-27 8-33.3 20.7z m72.8 96.5l88.4 12.8-64 62.3 15.1 88-79-41.5-79 41.5 15.1-88-63.9-62.3 88.4-12.8 39.5-80.1 39.4 80.1z" fill="#d81e06" p-id="7389"></path></svg>