<?xml version="1.0" standalone="no"?><!DOCTYPE svg PUBLIC "-//W3C//DTD SVG 1.1//EN" "http://www.w3.org/Graphics/SVG/1.1/DTD/svg11.dtd"><svg t="1519753923848" class="icon" style="" viewBox="0 0 1024 1024" version="1.1" xmlns="http://www.w3.org/2000/svg" p-id="6085" xmlns:xlink="http://www.w3.org/1999/xlink" width="200" height="200"><defs><style type="text/css"></style></defs><path d="M926.8 386.6l-392.2-175c-7.3-3.2-15.1-4.9-22.9-4.9s-15.6 1.6-22.9 4.9l-392.2 175c-20.2 9-33.2 29.1-33.2 51.2 0 20 10.7 38.3 27.7 48.3 5.1 5.9 11 10.5 15.8 14.2 10.6 8.1 13.5 11.1 13.5 16.9 0 5.8-2.9 8.8-13.5 16.9-11 8.6-27.9 21.6-27.9 46.7s17 38.1 28.2 46.6c7.7 5.9 11.3 9.1 12.7 12.6-17.5 1.4-31.8 14.7-34.1 32.4l-9.9 77.4c-1.4 10.7 1.9 21.4 9 29.5C92 787.4 102.2 792 113 792h53.8c10.7 0 21-4.6 28.1-12.7 7.1-8.1 10.4-18.8 9-29.5l-9.9-77.4c-2.3-18.4-17.9-32.2-36.4-32.6-1.9-22.1-17.3-34.1-27.8-42.1-10.6-8.1-13.5-11.1-13.5-16.9 0-5.8 2.9-8.8 13.5-16.9 11.2-8.6 28.2-21.5 28.2-46.6 0-0.3-0.1-0.6-0.1-0.9l66.4 29.7c-0.3 2.3-0.6 4.6-0.6 7v147c0 106.4 204 117.9 291.8 117.9 87.7 0 291.8-11.5 291.8-117.9V550.2c0-2.6-0.2-5.1-0.6-7.6l120.1-53.5c20.2-9 33.3-29.1 33.3-51.2 0-22.2-13-42.3-33.3-51.3zM113 754.6l9.9-77.4h34l9.9 77.4H113z m638.2-116.8c-9.9 12.6-34.2 27.3-75.4 39-7.4 2.1-15.4 4.1-23.6 6-10.1 2.3-16.4 12.3-14.1 22.3 2 8.7 9.7 14.6 18.2 14.6 1.4 0 2.8-0.2 4.1-0.5 9-2 17.6-4.2 25.7-6.5 26.3-7.5 48.2-16.7 65.1-27.1V700c0 34.1-105.5 61.8-235.7 61.8S279.8 734.2 279.8 700v-15.4c51.4 32.5 144.4 49.3 236.8 49.3 21.6 0 42.9-0.9 63.6-2.7 10.3-0.9 17.9-9.9 17-20.2-0.9-10.3-9.9-18-20.2-17-19.6 1.7-39.9 2.5-60.4 2.5-131.2 0-219.8-33.8-236.8-61.7v-64L488.3 664c7.3 3.3 15.1 4.9 22.9 4.9 7.8 0 15.6-1.6 22.8-4.9l217.1-96.7v70.5z m-240-25l-391.5-175 392.2-175 392.2 175-392.9 175z" fill="#d81e06" p-id="6086"></path></svg>