<?xml version="1.0" standalone="no"?><!DOCTYPE svg PUBLIC "-//W3C//DTD SVG 1.1//EN" "http://www.w3.org/Graphics/SVG/1.1/DTD/svg11.dtd"><svg t="1519754589274" class="icon" style="" viewBox="0 0 1024 1024" version="1.1" xmlns="http://www.w3.org/2000/svg" p-id="13227" xmlns:xlink="http://www.w3.org/1999/xlink" width="200" height="200"><defs><style type="text/css"></style></defs><path d="M826.32704 479.25248l-307.2-223.41632a20.43904 20.43904 0 0 0-24.10496 0l-307.2 223.41632a20.48 20.48 0 1 0 24.10496 33.11616l40.42752-29.40928V763.904a20.48 20.48 0 0 0 20.48 20.48h165.376a20.48 20.48 0 0 0 20.48-20.48v-192.36864h96.768V763.904a20.48 20.48 0 0 0 20.48 20.48h165.376a20.48 20.48 0 0 0 20.48-20.48V482.97984l40.42752 29.40928a20.43904 20.43904 0 0 0 28.61056-4.52608 20.48 20.48 0 0 0-4.5056-28.61056z m-105.49248 264.192h-124.416v-192.36864a20.48 20.48 0 0 0-20.48-20.48h-137.728a20.48 20.48 0 0 0-20.48 20.48v192.36864h-124.416V453.18144l213.77024-155.46368 213.77024 155.46368v290.26304z" fill="#d81e06" p-id="13228"></path></svg>