<?xml version="1.0" standalone="no"?><!DOCTYPE svg PUBLIC "-//W3C//DTD SVG 1.1//EN" "http://www.w3.org/Graphics/SVG/1.1/DTD/svg11.dtd"><svg t="1519753953245" class="icon" style="" viewBox="0 0 1024 1024" version="1.1" xmlns="http://www.w3.org/2000/svg" p-id="6758" xmlns:xlink="http://www.w3.org/1999/xlink" width="200" height="200"><defs><style type="text/css"></style></defs><path d="M804.8 64.7H472.2c-14.8 0-29 5.9-39.5 16.4L179.2 334.6c-10.5 10.5-16.3 24.7-16.3 39.5v528.6c0 30.8 25 55.8 55.9 55.8h586.1c30.8 0 55.9-25 55.9-55.8V120.6c-0.1-30.9-25.1-55.9-56-55.9z m-366.5 89.8v183.9H254.4l183.9-183.9z m366.5 748.2H218.7v-527h238.2c10.3 0 18.6-8.3 18.6-18.6V120.6h329.3v782.1z" fill="#d81e06" p-id="6759"></path><path d="M303.3 474.7c-10.3 0-18.6 8.3-18.6 18.6s8.3 18.6 18.6 18.6h402.6c10.3 0 18.6-8.3 18.6-18.6s-8.3-18.6-18.6-18.6H303.3zM303.3 611.4h201.3c10.3 0 18.6-8.4 18.6-18.6 0-10.3-8.3-18.6-18.6-18.6H303.3c-10.3 0-18.6 8.3-18.6 18.6 0 10.2 8.3 18.6 18.6 18.6zM603.4 574.1c-10.3 0-18.6 8.3-18.6 18.6s8.3 18.6 18.6 18.6H713c10.3 0 18.6-8.4 18.6-18.6 0-10.3-8.3-18.6-18.6-18.6H603.4zM303.3 710.8h402.6c10.3 0 18.6-8.3 18.6-18.6s-8.3-18.6-18.6-18.6H303.3c-10.3 0-18.6 8.3-18.6 18.6s8.3 18.6 18.6 18.6zM713 773.1H511.7c-10.3 0-18.6 8.3-18.6 18.6s8.4 18.6 18.6 18.6H713c10.3 0 18.6-8.3 18.6-18.6s-8.3-18.6-18.6-18.6zM412.9 773.1H303.3c-10.3 0-18.6 8.3-18.6 18.6s8.3 18.6 18.6 18.6H413c10.3 0 18.6-8.3 18.6-18.6s-8.4-18.6-18.7-18.6z" fill="#d81e06" p-id="6760"></path></svg>