<?xml version="1.0" standalone="no"?><!DOCTYPE svg PUBLIC "-//W3C//DTD SVG 1.1//EN" "http://www.w3.org/Graphics/SVG/1.1/DTD/svg11.dtd"><svg t="1519753974376" class="icon" style="" viewBox="0 0 1024 1024" version="1.1" xmlns="http://www.w3.org/2000/svg" p-id="7209" xmlns:xlink="http://www.w3.org/1999/xlink" width="200" height="200"><defs><style type="text/css"></style></defs><path d="M809.2 119.4h-53.4V82c0-10.4-8.4-18.8-18.8-18.8s-18.8 8.4-18.8 18.8v37.4H666V82c0-10.4-8.4-18.8-18.8-18.8s-18.8 8.4-18.8 18.8v37.4h-52.1V82c0-10.4-8.4-18.8-18.8-18.8s-18.8 8.4-18.8 18.8v37.4h-52.2V82c0-10.4-8.4-18.8-18.8-18.8s-18.8 8.4-18.8 18.8v37.4h-52.2V82c0-10.4-8.4-18.8-18.8-18.8s-18.8 8.4-18.8 18.8v37.4H307V82c0-10.4-8.4-18.8-18.8-18.8s-18.8 8.4-18.8 18.8v37.4H216c-31.1 0-56.4 25.3-56.4 56.4v727.4c0 31.1 25.3 56.4 56.4 56.4h593.1c31.1 0 56.4-25.2 56.4-56.4V175.8c0-31.1-25.2-56.4-56.3-56.4zM216.1 903.2V314h403.6c10.4 0 18.8-8.4 18.8-18.8s-8.4-18.8-18.8-18.8H216.1V175.8h53.4v38.8c0 10.4 8.4 18.8 18.8 18.8s18.8-8.4 18.8-18.8v-38.8h52.1v38.8c0 10.4 8.4 18.8 18.8 18.8s18.8-8.4 18.8-18.8v-38.8H449v38.8c0 10.4 8.4 18.8 18.8 18.8s18.8-8.4 18.8-18.8v-38.8h52.2v38.8c0 10.4 8.4 18.8 18.8 18.8s18.8-8.4 18.8-18.8v-38.8h52.1v38.8c0 10.4 8.4 18.8 18.8 18.8s18.8-8.4 18.8-18.8v-38.8h52.2v38.8c0 10.4 8.4 18.8 18.8 18.8s18.8-8.4 18.8-18.8v-38.8h53.4v100.6H725c-10.4 0-18.8 8.4-18.8 18.8S714.6 314 725 314h84.3v589.2H216.1z" fill="#d81e06" p-id="7210"></path><path d="M715.8 438.3H487c-10.4 0-18.8 8.4-18.8 18.8s8.4 18.8 18.8 18.8h228.8c10.4 0 18.8-8.4 18.8-18.8s-8.4-18.8-18.8-18.8zM381.3 438.3h-71.9c-10.4 0-18.8 8.4-18.8 18.8s8.4 18.8 18.8 18.8h71.9c10.4 0 18.8-8.4 18.8-18.8s-8.4-18.8-18.8-18.8zM715.8 537H487c-10.4 0-18.8 8.4-18.8 18.8s8.4 18.8 18.8 18.8h228.8c10.4 0 18.8-8.4 18.8-18.8s-8.4-18.8-18.8-18.8zM381.3 537h-71.9c-10.4 0-18.8 8.4-18.8 18.8s8.4 18.8 18.8 18.8h71.9c10.4 0 18.8-8.4 18.8-18.8s-8.4-18.8-18.8-18.8zM715.8 640.3H487c-10.4 0-18.8 8.4-18.8 18.8s8.4 18.8 18.8 18.8h228.8c10.4 0 18.8-8.4 18.8-18.8s-8.4-18.8-18.8-18.8zM381.3 640.3h-71.9c-10.4 0-18.8 8.4-18.8 18.8s8.4 18.8 18.8 18.8h71.9c10.4 0 18.8-8.4 18.8-18.8s-8.4-18.8-18.8-18.8zM715.8 749.6H487c-10.4 0-18.8 8.4-18.8 18.8s8.4 18.8 18.8 18.8h228.8c10.4 0 18.8-8.4 18.8-18.8s-8.4-18.8-18.8-18.8zM381.3 749.6h-71.9c-10.4 0-18.8 8.4-18.8 18.8s8.4 18.8 18.8 18.8h71.9c10.4 0 18.8-8.4 18.8-18.8s-8.4-18.8-18.8-18.8z" fill="#d81e06" p-id="7211"></path></svg>