<?xml version="1.0" standalone="no"?><!DOCTYPE svg PUBLIC "-//W3C//DTD SVG 1.1//EN" "http://www.w3.org/Graphics/SVG/1.1/DTD/svg11.dtd"><svg t="1519754342551" class="icon" style="" viewBox="0 0 1024 1024" version="1.1" xmlns="http://www.w3.org/2000/svg" p-id="7919" xmlns:xlink="http://www.w3.org/1999/xlink" width="200" height="200"><defs><style type="text/css"></style></defs><path d="M958.6 893.4L917.7 671c-2.1-11.2-7.4-21.5-15.5-29.5l-561-561a56.099 56.099 0 0 0-39.6-16.4c-14.9 0-29.1 5.9-39.6 16.4L80.6 262c-21.9 21.9-21.9 57.3 0 79.3l561 560.9c8 8 18.3 13.4 29.5 15.5l222.3 41c3.4 0.6 6.8 0.9 10.2 0.9 14.7 0 29-5.8 39.6-16.4 13-13.1 18.8-31.7 15.4-49.8zM710 867.9L867.9 710l12.1 65.7L775.6 880 710 867.9zM120.2 301.6l40.9-40.9 396.6 396.6c3.6 3.6 8.4 5.5 13.2 5.5 4.8 0 9.6-1.8 13.2-5.5 7.3-7.3 7.3-19.1 0-26.4L187.5 234.3l43.7-43.7 82.3 82.3c3.6 3.7 8.4 5.5 13.2 5.5 4.8 0 9.5-1.8 13.2-5.5 7.3-7.3 7.3-19.1 0-26.4l-82.3-82.3 44-44 551.6 551.6-44 44-399.1-399c-7.3-7.3-19.1-7.3-26.4 0-7.3 7.3-7.3 19.1 0 26.4l399.1 399.1-43.7 43.7-84.8-84.8c-7.3-7.3-19.1-7.3-26.4 0-7.3 7.3-7.3 19.1 0 26.4l84.8 84.8-40.9 40.9-551.6-551.7z m700 586.6l68-68 15.4 83.3-83.4-15.3z" fill="#d81e06" p-id="7920"></path></svg>